<svg xmlns="http://www.w3.org/2000/svg" version="1.1" xmlns:xlink="http://www.w3.org/1999/xlink" xmlns:svgjs="http://svgjs.com/svgjs"><defs id="SvgjsDefs1001"></defs><svg id="SvgjsSvg1002" width="2" height="0" style="overflow: hidden; top: -100%; left: -100%; position: absolute; opacity: 0"><polyline id="SvgjsPolyline1003" points="0,0"></polyline><path id="SvgjsPath1004" d="M0 0 "></path></svg><rect id="SvgjsRect1006" width="500" height="500" fill="#dddddd"></rect><line id="SvgjsLine1007" x1="160" y1="160" x2="160" y2="260" fill="black" stroke="#000000" stroke-width="5"></line><line id="SvgjsLine1008" x1="160" y1="160" x2="460" y2="260" fill="black" stroke="#000000" stroke-width="5"></line><line id="SvgjsLine1009" x1="160" y1="260" x2="160" y2="360" fill="black" stroke="#000000" stroke-width="5"></line><line id="SvgjsLine1010" x1="160" y1="260" x2="60" y2="260" fill="black" stroke="#000000" stroke-width="5"></line><line id="SvgjsLine1011" x1="160" y1="260" x2="460" y2="260" fill="black" stroke="#000000" stroke-width="5"></line><line id="SvgjsLine1012" x1="160" y1="360" x2="160" y2="460" fill="black" stroke="#000000" stroke-width="5"></line><line id="SvgjsLine1013" x1="160" y1="360" x2="60" y2="360" fill="black" stroke="#000000" stroke-width="5"></line><line id="SvgjsLine1014" x1="160" y1="360" x2="360" y2="360" fill="black" stroke="#000000" stroke-width="5"></line><line id="SvgjsLine1015" x1="60" y1="260" x2="160" y2="260" fill="black" stroke="#000000" stroke-width="5"></line><line id="SvgjsLine1016" x1="460" y1="260" x2="160" y2="260" fill="black" stroke="#000000" stroke-width="5"></line><line id="SvgjsLine1017" x1="60" y1="360" x2="160" y2="360" fill="black" stroke="#000000" stroke-width="5"></line><line id="SvgjsLine1018" x1="360" y1="360" x2="160" y2="360" fill="black" stroke="#000000" stroke-width="5"></line><symbol id="SvgjsSymbol1019"><rect id="SvgjsRect1020" width="20" height="20" fill="#ff0099"></rect></symbol><use id="SvgjsUse1021" href="#SvgjsSymbol1019" x="150" y="150"></use><symbol id="SvgjsSymbol1022"><rect id="SvgjsRect1023" width="20" height="20" fill="#ff0099"></rect></symbol><use id="SvgjsUse1024" href="#SvgjsSymbol1022" x="150" y="250"></use><symbol id="SvgjsSymbol1025"><rect id="SvgjsRect1026" width="20" height="20" fill="#ff0099"></rect></symbol><use id="SvgjsUse1027" href="#SvgjsSymbol1025" x="150" y="350"></use><symbol id="SvgjsSymbol1028"><rect id="SvgjsRect1029" width="20" height="20" fill="#ff0099"></rect></symbol><use id="SvgjsUse1030" href="#SvgjsSymbol1028" x="150" y="450"></use><symbol id="SvgjsSymbol1031"><rect id="SvgjsRect1032" width="20" height="20" fill="#ff0099"></rect></symbol><use id="SvgjsUse1033" href="#SvgjsSymbol1031" x="50" y="250"></use><symbol id="SvgjsSymbol1034"><rect id="SvgjsRect1035" width="20" height="20" fill="#ff0099"></rect></symbol><use id="SvgjsUse1036" href="#SvgjsSymbol1034" x="450" y="250"></use><symbol id="SvgjsSymbol1037"><rect id="SvgjsRect1038" width="20" height="20" fill="#ff0099"></rect></symbol><use id="SvgjsUse1039" href="#SvgjsSymbol1037" x="50" y="350"></use><symbol id="SvgjsSymbol1040"><rect id="SvgjsRect1041" width="20" height="20" fill="#ff0099"></rect></symbol><use id="SvgjsUse1042" href="#SvgjsSymbol1040" x="350" y="350"></use></svg>